<svg viewBox="0 0 200 200" xmlns="http://www.w3.org/2000/svg" fill="none">
  <!-- Outer circle -->
  <circle cx="100" cy="100" r="85" stroke="#FF8C1A" stroke-width="18" fill="transparent" />
  
  <!-- Fingerprint pattern -->
  <g stroke="#FF8C1A" stroke-width="6" stroke-linecap="round" fill="none">
    <!-- Top curves -->
    <path d="M 72 48 Q 100 45 128 48" />
    <path d="M 68 60 Q 100 52 135 62" />
    
    <!-- Upper middle section -->
    <path d="M 60 72 Q 100 65 142 75" />
    <path d="M 58 85 Q 100 78 145 88" />
    
    <!-- Center curves - main whorl -->
    <path d="M 55 98 Q 85 92 100 92 Q 115 92 148 100" />
    <path d="M 53 110 Q 85 105 100 105 Q 115 105 150 113" />
    <path d="M 52 122 Q 85 118 100 118 Q 115 118 152 126" />
    
    <!-- Lower section -->
    <path d="M 55 135 Q 85 131 100 131 Q 115 131 148 138" />
    <path d="M 60 148 Q 85 144 100 144 Q 115 144 142 150" />
    
    <!-- Inner curves -->
    <path d="M 75 100 Q 85 96 95 96" />
    <path d="M 73 110 Q 85 106 100 106 Q 108 106 115 108" />
    <path d="M 72 120 Q 85 116 100 116 Q 112 116 122 119" />
    <path d="M 75 130 Q 85 127 100 127 Q 110 127 118 129" />
    
    <!-- Right side detail curves -->
    <path d="M 130 75 L 138 78" />
    <path d="M 145 92 L 153 98" />
    <path d="M 148 105 L 155 112" />
    <path d="M 150 118 L 157 126" />
    <path d="M 145 132 L 152 140" />
    <path d="M 138 145 L 143 152" />
    
    <!-- Left side curves -->
    <path d="M 48 100 Q 52 95 58 93" />
    <path d="M 46 113 Q 50 108 56 106" />
    <path d="M 48 126 Q 52 121 58 119" />
    <path d="M 52 138 Q 56 134 62 132" />
    
    <!-- Bottom curves -->
    <path d="M 68 152 Q 85 156 100 156" />
    <path d="M 78 158 L 95 160" />
    
    <!-- Additional detail lines -->
    <line x1="98" y1="85" x2="102" y2="82" />
    <line x1="108" y1="95" x2="112" y2="92" />
    <line x1="88" y1="140" x2="92" y2="143" />
  </g>
</svg>