<svg width="64" height="64" viewBox="0 0 64 64" xmlns="http://www.w3.org/2000/svg">
  <defs>
    <linearGradient id="bg" x1="18" y1="4" x2="50" y2="60" gradientUnits="userSpaceOnUse">
      <stop offset="0" stop-color="#f6ead5" />
      <stop offset="1" stop-color="#e8d2ab" />
    </linearGradient>
  </defs>
  <circle cx="32" cy="32" r="30" fill="url(#bg)" stroke="#b97a3c" stroke-width="2" />
  <path d="M21.5 28.2c2.9-6.8 11-11 17.9-8.3 3.6 1.4 5.8 4.4 9.6 5.7-2 4.4-6.7 7.6-11.5 8.8 1.4 3.7 0 7.4-3.4 9.2-5 2.6-11.8-1.8-15.1-6.3-2.2-3.1-3-6.3-1.5-9.1z" fill="#2f5d3e" />
  <path d="M24.2 32.6c5-0.3 9.8 1.6 12.6 5.6 0.8 1.1 1.1 2.1 0.6 3.1-0.6 1.2-2.2 2-4.4 1.8-4.8-0.4-9.5-3.4-11.7-7.6-0.6-1.2 0.6-2.7 2.9-2.9z" fill="#7ba07e" />
  <path d="M44 21.8l4.5 2.2c-1.1 1.7-3.4 2.4-5.6 1.9z" fill="#b97a3c" />
  <circle cx="38.6" cy="25.4" r="1.4" fill="#1f2a24" />
  <path d="M27.3 42.9c2.5 2 5.3 3 7.5 2.6-1.9 1.8-4.8 2.2-7.6 0.7-1.5-0.8-2.5-1.9-3-3.3 1 0.3 2 0.4 3.1 0z" fill="#5b8a72" />
</svg>
